<svg viewBox="0 0 400 400" xmlns="http://www.w3.org/2000/svg">

  <rect x="90" y="130" width="220" height="140" rx="25" fill="#5E6472"/>
  <rect x="100" y="120" width="220" height="140" rx="25" fill="#CDB4DB"/>
  <rect x="100" y="190" width="220" height="80" rx="10" fill="#BDE0FE"/>

  <circle cx="230" cy="170" r="45" fill="#3A405A"/>
  <circle cx="230" cy="170" r="32" fill="#1E2749"/>
  <circle cx="230" cy="170" r="18" fill="#FFC8DD"/>

  <path d="M230 165
           C225 155,210 160,230 180
           C250 160,235 155,230 165Z"
        fill="#FFFFFF"/>

  <circle cx="145" cy="170" r="14" fill="#A2D2FF"/>
  <rect x="280" y="145" width="30" height="30" rx="6" fill="#1E2749"/>

  <rect x="170" y="250" width="60" height="90" fill="#FFD6A5" transform="rotate(-10 200 290)"/>
  <rect x="210" y="250" width="60" height="90" fill="#FDFFB6" transform="rotate(8 240 290)"/>
  <rect x="190" y="255" width="60" height="90" fill="#FFFFFF"/>

</svg>
