<svg viewBox="0 0 400 400" xmlns="http://www.w3.org/2000/svg">

  
  <rect x="90" y="130" width="220" height="140" rx="25" fill="#6C7A9C"/>

  
  <rect x="100" y="120" width="220" height="140" rx="25" fill="#F6B8A2"/>

  
  <rect x="100" y="190" width="220" height="80" rx="10" fill="#F9E4D4"/>

  
  <circle cx="230" cy="170" r="45" fill="#4A5873"/>
  <circle cx="230" cy="170" r="32" fill="#2E3A52"/>
  <circle cx="230" cy="170" r="18" fill="#F6B8A2"/>

 
  <path d="M230 165
           C225 155,210 160,230 180
           C250 160,235 155,230 165Z"
        fill="#FCE2D9"/>

  
  <circle cx="145" cy="170" r="14" fill="#FFD6C9"/>
  <rect x="280" y="145" width="30" height="30" rx="6" fill="#2E3A52"/>

  
  <rect x="170" y="250" width="60" height="90" fill="#FAD4D8" transform="rotate(-10 200 290)"/>
  <rect x="210" y="250" width="60" height="90" fill="#CDE7E3" transform="rotate(8 240 290)"/>
  <rect x="190" y="255" width="60" height="90" fill="#FFFFFF"/>

</svg>
